# xmcd
#
# Track frame offsets: 
#        150
#        14932
#        32623
#        48148
#        62953
#
# Disc length: 1077 seconds
#
# Revision: 0
# Processed by: cddbd v1.5.2PL0 Copyright (c) Steve Scherf et al.
# Submitted via: ExactAudioCopy v0.99pb5
#
DISCID=3f043305
DTITLE=The Ready Set - Stays Four The Same (EP)
DYEAR=2009
DGENRE=Pop Punk
TTITLE0=Stays Four The Same
TTITLE1=Giants
TTITLE2=Unender
TTITLE3=Some Space (Acoustic)
TTITLE4=Soular Flares (Acoustic)
EXTD=
EXTT0=
EXTT1=
EXTT2=
EXTT3=
EXTT4=
PLAYORDER=
